<?xml version="1.0" encoding="UTF-8" standalone="no"?>
<svg
   width="180"
   height="50"
   viewBox="0 0 180 50"
   fill="none"
   version="1.1"
   id="svg48"
   sodipodi:docname="skil-4.svg"
   inkscape:version="1.2.1 (9c6d41e4, 2022-07-14)"
   xmlns:inkscape="http://www.inkscape.org/namespaces/inkscape"
   xmlns:sodipodi="http://sodipodi.sourceforge.net/DTD/sodipodi-0.dtd"
   xmlns="http://www.w3.org/2000/svg"
   xmlns:svg="http://www.w3.org/2000/svg">
  <defs
     id="defs52" />
  <sodipodi:namedview
     id="namedview50"
     pagecolor="#ffffff"
     bordercolor="#000000"
     borderopacity="0.25"
     inkscape:showpageshadow="2"
     inkscape:pageopacity="0.0"
     inkscape:pagecheckerboard="0"
     inkscape:deskcolor="#d1d1d1"
     showgrid="false"
     inkscape:zoom="3.9305994"
     inkscape:cx="158.5"
     inkscape:cy="25.059791"
     inkscape:window-width="1390"
     inkscape:window-height="1205"
     inkscape:window-x="2126"
     inkscape:window-y="84"
     inkscape:window-maximized="0"
     inkscape:current-layer="svg48" />
  <path
     d="m 22.73128,38.295242 c -2.66,0 -4.902,-0.57 -6.726,-1.71 -1.824,-1.1653 -3.1287,-2.7867 -3.914,-4.864 l 5.244,-3.04 c 1.064,2.4573 2.926,3.686 5.586,3.686 2.4066,0 3.61,-0.722 3.61,-2.166 0,-0.8107 -0.3927,-1.4187 -1.178,-1.824 -0.8107,-0.4813 -2.2547,-1.0007 -4.332,-1.558 -2.128,-0.5827 -3.9267,-1.4187 -5.396,-2.508 -1.6214,-1.3173 -2.432,-3.1793 -2.432,-5.586 0,-2.4573 0.874,-4.4207 2.622,-5.89 1.7733,-1.4693 3.876,-2.204 6.308,-2.204 2.1786,0 4.104,0.5193 5.776,1.558 1.672,1.0133 2.9893,2.4953 3.952,4.446 l -5.13,3.002 c -0.9627,-2.052 -2.4954,-3.078 -4.598,-3.078 -0.8867,0 -1.5834,0.19 -2.09,0.57 -0.5067,0.38 -0.76,0.8613 -0.76,1.444 0,0.6333 0.304,1.2033 0.912,1.71 0.6586,0.5067 1.9506,1.0387 3.876,1.596 l 2.47,0.798 c 0.6333,0.2027 1.368,0.5447 2.204,1.026 0.912,0.456 1.596,0.95 2.052,1.482 1.216,1.3173 1.824,2.964 1.824,4.94 0,2.508 -0.912,4.5093 -2.736,6.004 -1.824,1.444 -4.2054,2.166 -7.144,2.166 z m 23.3129,-11.096 v 4.712 h 10.64 v 5.852 h -16.72 v -26.6 h 16.53 v 5.852 h -10.45 v 4.408 h 9.5 v 5.776 z m 40.8806,7.106 c -2.685,2.66 -5.953,3.99 -9.804,3.99 -3.85,0 -7.118,-1.33 -9.804,-3.99 -2.685,-2.66 -4.0277,-5.9407 -4.0277,-9.842 0,-3.9013 1.3427,-7.182 4.0277,-9.842 2.686,-2.66 5.954,-3.99 9.804,-3.99 3.851,0 7.119,1.33 9.804,3.99 2.686,2.66 4.028,5.9407 4.028,9.842 0,3.9013 -1.342,7.182 -4.028,9.842 z m -17.556,-9.842 c 0,2.3307 0.735,4.2307 2.204,5.7 1.47,1.4693 3.319,2.204 5.548,2.204 2.204,0 4.041,-0.7347 5.51,-2.204 1.495,-1.4947 2.242,-3.3947 2.242,-5.7 0,-2.3053 -0.747,-4.2053 -2.242,-5.7 -1.469,-1.4693 -3.306,-2.204 -5.51,-2.204 -2.229,0 -4.078,0.7347 -5.548,2.204 -1.469,1.4693 -2.204,3.3693 -2.204,5.7 z"
     fill="#14161b"
     id="path44" />
  <path
     d="m 112.47878,20.659242 c -0.84,0.84 -1.868,1.26 -3.084,1.26 -1.216,0 -2.248,-0.42 -3.096,-1.26 -0.84,-0.848 -1.26,-1.88 -1.26,-3.096 0,-1.216 0.42,-2.244 1.26,-3.084 0.848,-0.848 1.88,-1.272 3.096,-1.272 1.216,0 2.244,0.424 3.084,1.272 0.848,0.84 1.272,1.868 1.272,3.084 0,1.216 -0.424,2.248 -1.272,3.096 z m -5.208,-0.936 c 0.584,0.568 1.292,0.852 2.124,0.852 0.84,0 1.544,-0.284 2.112,-0.852 0.576,-0.576 0.864,-1.296 0.864,-2.16 0,-0.864 -0.288,-1.58 -0.864,-2.148 -0.568,-0.576 -1.272,-0.864 -2.112,-0.864 -0.84,0 -1.548,0.288 -2.124,0.864 -0.568,0.568 -0.852,1.284 -0.852,2.148 0,0.856 0.284,1.576 0.852,2.16 z m 11.739,-6.36 h 3.096 c 0.792,0 1.452,0.264 1.98,0.792 0.536,0.528 0.804,1.184 0.804,1.968 0,0.776 -0.268,1.432 -0.804,1.968 -0.528,0.528 -1.188,0.792 -1.98,0.792 h -1.716 v 2.88 h -1.38 z m 1.38,4.224 h 1.716 c 0.408,0 0.744,-0.136 1.008,-0.408 0.264,-0.28 0.396,-0.632 0.396,-1.056 0,-0.424 -0.132,-0.772 -0.396,-1.044 -0.264,-0.28 -0.6,-0.42 -1.008,-0.42 h -1.716 z m 8.862,-4.224 h 6.12 v 1.32 h -2.364 v 7.08 h -1.38 v -7.08 h -2.376 z m 11.141,8.4 v -8.4 h 1.38 v 8.4 z m 13.622,-8.4 h 1.476 v 8.4 h -1.38 v -5.988 l -2.556,4.224 h -0.168 l -2.556,-4.236 v 6 h -1.38 v -8.4 h 1.488 l 2.532,4.2 z m 7.151,8.4 v -8.4 h 1.38 v 8.4 z m -50.607,7.74 -3.768,5.94 h 3.864 v 1.32 h -5.58 v -1.14 l 3.768,-5.94 h -3.684 v -1.32 h 5.4 z m 12.258,7.26 h -1.488 l -0.588,-1.692 h -3.576 l -0.588,1.692 h -1.5 l 3.048,-8.4 h 1.656 z m -3.864,-6.78 -1.332,3.792 h 2.664 z m 7.51,-1.62 h 6.12 v 1.32 h -2.364 v 7.08 h -1.38 v -7.08 h -2.376 z m 11.141,8.4 v -8.4 h 1.38 v 8.4 z m 14.078,-1.104 c -0.84,0.84 -1.868,1.26 -3.084,1.26 -1.216,0 -2.248,-0.42 -3.096,-1.26 -0.84,-0.848 -1.26,-1.88 -1.26,-3.096 0,-1.216 0.42,-2.244 1.26,-3.084 0.848,-0.848 1.88,-1.272 3.096,-1.272 1.216,0 2.244,0.424 3.084,1.272 0.848,0.84 1.272,1.868 1.272,3.084 0,1.216 -0.424,2.248 -1.272,3.096 z m -5.208,-0.936 c 0.584,0.568 1.292,0.852 2.124,0.852 0.84,0 1.544,-0.284 2.112,-0.852 0.576,-0.576 0.864,-1.296 0.864,-2.16 0,-0.864 -0.288,-1.58 -0.864,-2.148 -0.568,-0.576 -1.272,-0.864 -2.112,-0.864 -0.84,0 -1.548,0.288 -2.124,0.864 -0.568,0.568 -0.852,1.284 -0.852,2.148 0,0.856 0.284,1.576 0.852,2.16 z m 16.779,-0.66 v -5.7 h 1.38 v 8.4 h -1.08 l -3.96,-5.7 v 5.7 h -1.38 v -8.4 h 1.08 z"
     fill="#14161b"
     id="path46" />
</svg>
