<?xml version="1.0" encoding="UTF-8" standalone="no"?>
<svg
   width="185"
   height="45"
   viewBox="0 0 185 45"
   fill="none"
   version="1.1"
   id="svg317"
   sodipodi:docname="skil-5.svg"
   inkscape:version="1.2.1 (9c6d41e4, 2022-07-14)"
   xmlns:inkscape="http://www.inkscape.org/namespaces/inkscape"
   xmlns:sodipodi="http://sodipodi.sourceforge.net/DTD/sodipodi-0.dtd"
   xmlns="http://www.w3.org/2000/svg"
   xmlns:svg="http://www.w3.org/2000/svg">
  <defs
     id="defs321" />
  <sodipodi:namedview
     id="namedview319"
     pagecolor="#ffffff"
     bordercolor="#000000"
     borderopacity="0.25"
     inkscape:showpageshadow="2"
     inkscape:pageopacity="0.0"
     inkscape:pagecheckerboard="0"
     inkscape:deskcolor="#d1d1d1"
     showgrid="false"
     inkscape:zoom="5.1065574"
     inkscape:cx="122"
     inkscape:cy="22.422151"
     inkscape:window-width="1390"
     inkscape:window-height="1205"
     inkscape:window-x="2267"
     inkscape:window-y="105"
     inkscape:window-maximized="0"
     inkscape:current-layer="svg317" />
  <path
     fill-rule="evenodd"
     clip-rule="evenodd"
     d="m 57.407659,21.306133 c 1.0947,3.0106 1.6421,6.0211 1.6421,9.3053 0,3.2842 -0.5474,6.2947 -1.6421,9.3053 l -9.0316,-3.8316 c 0.8211,-1.6421 1.0948,-3.5579 1.0948,-5.4737 0,-1.9158 -0.2737,-3.8316 -1.0948,-5.4737 z"
     fill="#14161b"
     id="path303" />
  <path
     fill-rule="evenodd"
     clip-rule="evenodd"
     d="m 43.723459,6.8008129 c 5.7474,2.73684 10.4,7.3894201 13.1368,13.1368201 l -9.0315,3.8316 v -0.5474 l 5.4737,-6.5684 -7.3895,3.8316 c -1.6421,-1.9158 -3.5579,-3.5579 -6.0211,-4.6526 z"
     fill="#14161b"
     id="path305" />
  <path
     fill-rule="evenodd"
     clip-rule="evenodd"
     d="m 17.723459,25.137733 c -0.82105,1.6421 -1.09473,3.5579 -1.09473,5.4737 0,1.9158 0.27368,3.8316 1.09473,5.4737 l -9.0315698,3.8316 c -1.094738,-3.0106 -1.6421071,-6.0211 -1.6421071,-9.3053 0,-3.2842 0.5473691,-6.2947 1.6421071,-9.3053 z"
     fill="#14161b"
     id="path307" />
  <path
     fill-rule="evenodd"
     clip-rule="evenodd"
     d="m 26.207659,15.832433 c -3.5579,1.6421 -6.2947,4.3789 -7.9368,7.9368 l -9.0316198,-3.8316 C 11.976079,14.190233 16.628709,9.5376529 22.376059,6.8008129 Z"
     fill="#14161b"
     id="path309" />
  <path
     fill-rule="evenodd"
     clip-rule="evenodd"
     d="m 33.049759,4.6113569 c 3.2842,0 6.2947,0.547366 9.3053,1.642106 l -3.8316,9.0315701 c -1.6421,-0.821 -3.5579,-1.0947 -5.4737,-1.0947 -1.9158,0 -3.8316,0.2737 -5.4737,1.0947 l -3.8316,-9.0315701 c 3.0106,-1.09474 6.0211,-1.642106 9.3053,-1.642106 z"
     fill="#14161b"
     id="path311" />
  <path
     fill-rule="evenodd"
     clip-rule="evenodd"
     d="m 49.744459,19.390433 -6.2947,7.6631 c -2.1895,2.4632 -4.379,4.9263 -6.2947,7.3895 -4.379,6.0211 -12.3158,-1.6421 -4.9264,-5.7474 l 8.7579,-4.6526 z m -16.6947,11.221 c 1.3684,0 2.1895,1.0948 2.1895,2.1895 0,1.3684 -0.8211,2.4632 -2.1895,2.4632 -1.3684,0 -2.1895,-1.0948 -2.1895,-2.4632 0,-1.0947 0.8211,-2.1895 2.1895,-2.1895 z"
     fill="#14161b"
     id="path313" />
  <path
     d="m 77.428759,20.929533 c -0.234,0.0347 -0.4333,-0.0173 -0.598,-0.156 -0.1647,-0.1387 -0.2427,-0.3207 -0.234,-0.546 -0.0087,-0.7887 -0.039,-1.9933 -0.091,-3.614 -0.0607,-1.508 -0.1127,-2.82967 -0.156,-3.965 0,-0.24267 0.091,-0.468 0.273,-0.676 0.182,-0.208 0.3987,-0.338 0.65,-0.39 0.2513,-0.052 0.468,-0.0087 0.65,0.13 0.182,0.13867 0.273,0.32933 0.273,0.572 0.052,0.97067 0.117,2.6303 0.195,4.979 1.04,-1.7507 2.0757,-3.45367 3.107,-5.109 0.104,-0.17333 0.2427,-0.30767 0.416,-0.403 0.182,-0.104 0.364,-0.156 0.546,-0.156 0.208,0 0.3857,0.065 0.533,0.195 0.1473,0.12133 0.221,0.53733 0.221,1.248 l 0.364,2.613 0.182,1.703 c 0.1127,-0.2167 0.4593,-0.949 1.04,-2.197 0.5807,-1.248 1.0703,-2.236 1.469,-2.964 0.1213,-0.234 0.3033,-0.41167 0.546,-0.533 0.2513,-0.12133 0.4853,-0.14733 0.702,-0.078 0.2253,0.06933 0.377,0.21667 0.455,0.442 0.078,0.21667 0.0563,0.44633 -0.065,0.689 -0.3987,0.71933 -0.832,1.5817 -1.3,2.587 -0.4593,1.0053 -0.7583,1.6423 -0.897,1.911 l -0.793,1.547 -0.741,1.469 c -0.0953,0.182 -0.2297,0.3337 -0.403,0.455 -0.1733,0.1213 -0.351,0.1907 -0.533,0.208 -0.2427,0.0607 -0.455,0.039 -0.637,-0.065 -0.182,-0.104 -0.2903,-0.2643 -0.325,-0.481 -0.2167,-1.248 -0.403,-2.6303 -0.559,-4.147 -0.026,-0.26 -0.0693,-0.5937 -0.13,-1.001 l -3.055,5.148 c -0.1213,0.1993 -0.286,0.3553 -0.494,0.468 -0.1993,0.104 -0.403,0.143 -0.611,0.117 z m 16.5918,0 c -1.2827,0 -3.029,-0.013 -5.239,-0.039 -0.1734,0 -0.3207,-0.0477 -0.442,-0.143 -0.1214,-0.104 -0.2037,-0.2297 -0.247,-0.377 -0.0694,-0.156 -0.0824,-0.325 -0.039,-0.507 0.0693,-0.3033 0.325,-1.5253 0.767,-3.666 0.3206,-1.56 0.6196,-2.78633 0.897,-3.679 0.0346,-0.11267 0.0823,-0.21667 0.143,-0.312 0.104,-0.17333 0.2383,-0.312 0.403,-0.416 0.1733,-0.11267 0.3596,-0.17333 0.559,-0.182 0.6326,-0.0087 1.4863,-0.0087 2.561,0 1.0746,0 1.9283,-0.0043 2.561,-0.013 0.2513,0 0.4463,0.08667 0.585,0.26 0.1386,0.17333 0.182,0.38567 0.13,0.637 -0.052,0.24267 -0.182,0.455 -0.39,0.637 -0.1994,0.17333 -0.4247,0.26 -0.676,0.26 -0.4854,0 -1.209,0 -2.171,0 -0.962,-0.0087 -1.6857,-0.0087 -2.171,0 -0.1387,0.5287 -0.2904,1.1527 -0.455,1.872 0.416,-0.0087 1.6986,-0.013 3.848,-0.013 0.2513,0 0.4463,0.0867 0.585,0.26 0.1473,0.1733 0.195,0.3857 0.143,0.637 -0.052,0.2427 -0.1864,0.455 -0.403,0.637 -0.2167,0.1733 -0.4507,0.26 -0.702,0.26 -2.158,0 -3.4364,0.0043 -3.835,0.013 -0.1907,0.9707 -0.3337,1.6553 -0.429,2.054 1.7593,0.0173 3.2283,0.026 4.407,0.026 0.2513,0 0.442,0.0867 0.572,0.26 0.1386,0.1733 0.182,0.3857 0.13,0.637 -0.052,0.2513 -0.1864,0.4637 -0.403,0.637 -0.208,0.1733 -0.4377,0.26 -0.689,0.26 z m 5.7954,0.039 c -0.1733,0 -0.4766,-0.0087 -0.91,-0.026 l -1.066,-0.052 c -0.026,0.0087 -0.0606,0.013 -0.104,0.013 -0.1473,0 -0.2816,-0.0347 -0.403,-0.104 -0.234,-0.13 -0.351,-0.3423 -0.351,-0.637 0,-0.0867 0.0044,-0.1517 0.013,-0.195 0.0087,-0.026 0.0304,-0.0867 0.065,-0.182 l 0.481,-2.171 c 0.234,-1.0573 0.416,-1.95 0.546,-2.678 0.1387,-0.7367 0.2557,-1.46467 0.351,-2.184 0.0347,-0.24267 0.1387,-0.455 0.312,-0.637 0.182,-0.19067 0.39,-0.30767 0.624,-0.351 0.13,-0.078 0.286,-0.12567 0.468,-0.143 l 1.586001,-0.052 c 1.222,0 2.132,0.20367 2.73,0.611 0.598,0.39867 0.897,0.96633 0.897,1.703 0,0.4507 -0.1213,0.8667 -0.364,1.248 -0.234,0.3727 -0.507,0.6153 -0.819,0.728 0.416,0.1733 0.7107,0.3987 0.884,0.676 0.182,0.2773 0.273,0.6153 0.273,1.014 0,0.5373 -0.117,1.001 -0.351,1.391 -0.26,0.4247 -0.6716,0.8147 -1.235,1.17 -0.8493,0.5113 -1.885,0.793 -3.107,0.845 -0.1126,0.0087 -0.286,0.013 -0.520001,0.013 z m 0.819001,-1.794 c 0.5114,-0.026 0.9144,-0.065 1.209,-0.117 0.2947,-0.052 0.559,-0.1473 0.793,-0.286 0.2254,-0.1387 0.3727,-0.2687 0.442,-0.39 0.078,-0.13 0.1127,-0.312 0.104,-0.546 -0.0173,-0.416 -0.364,-0.663 -1.04,-0.741 -0.312,-0.0347 -0.7323,-0.0477 -1.261,-0.039 l -1.456001,-0.013 -0.429,2.093 c 0.078,0.0087 0.1474,0.013 0.208,0.013 0.0607,0 0.117,0.0043 0.169,0.013 0.641401,0.0173 1.061701,0.0217 1.261001,0.013 z m 0.611,-3.861 c 0.5634,0 1.0444,-0.104 1.443,-0.312 0.3467,-0.1907 0.52,-0.4247 0.52,-0.702 0,-0.2513 -0.1646,-0.455 -0.494,-0.611 -0.3206,-0.16467 -0.78,-0.247 -1.378,-0.247 -0.4766,0 -0.8753,0.0087 -1.196,0.026 l -0.091,0.546 -0.208001,1.209 c 0.511401,0.0607 0.979401,0.091 1.404001,0.091 z m 12.3468,5.707 c -1.023,0 -1.79,-0.2167 -2.301,-0.65 -0.512,-0.4333 -0.767,-1.001 -0.767,-1.703 0,-0.5113 0.108,-0.8927 0.325,-1.144 0.225,-0.2513 0.489,-0.377 0.793,-0.377 0.199,0 0.372,0.0607 0.52,0.182 0.147,0.1127 0.221,0.2773 0.221,0.494 0,0.0173 -0.013,0.182 -0.039,0.494 l -0.026,0.26 c 0,0.1993 0.121,0.3683 0.364,0.507 0.251,0.1387 0.615,0.208 1.092,0.208 0.303,0 0.593,-0.052 0.871,-0.156 0.286,-0.104 0.515,-0.2427 0.689,-0.416 0.173,-0.1733 0.26,-0.3553 0.26,-0.546 0,-0.156 -0.065,-0.3033 -0.195,-0.442 -0.122,-0.1387 -0.338,-0.273 -0.65,-0.403 l -0.507,-0.195 c -0.148,-0.052 -0.308,-0.1083 -0.481,-0.169 -0.174,-0.0693 -0.356,-0.143 -0.546,-0.221 -1.3,-0.5287 -1.95,-1.3043 -1.95,-2.327 0,-0.51133 0.169,-0.99233 0.507,-1.443 0.338,-0.45067 0.784,-0.81033 1.339,-1.079 0.554,-0.26867 1.144,-0.403 1.768,-0.403 0.918,0 1.668,0.221 2.249,0.663 0.58,0.442 0.871,1.06167 0.871,1.859 0,0.4247 -0.091,0.754 -0.273,0.988 -0.182,0.2253 -0.425,0.338 -0.728,0.338 -0.269,0 -0.486,-0.0693 -0.65,-0.208 -0.156,-0.1387 -0.234,-0.325 -0.234,-0.559 0,-0.2253 -0.005,-0.3813 -0.013,-0.468 -0.009,-0.0953 -0.048,-0.1863 -0.117,-0.273 -0.122,-0.156 -0.317,-0.29033 -0.585,-0.403 -0.26,-0.12133 -0.568,-0.18633 -0.923,-0.195 -0.425,0 -0.759,0.08667 -1.001,0.26 -0.243,0.17333 -0.364,0.377 -0.364,0.611 0,0.2253 0.091,0.403 0.273,0.533 0.19,0.13 0.546,0.3033 1.066,0.52 0.138,0.052 0.242,0.0953 0.312,0.13 0.502,0.1907 0.927,0.3727 1.274,0.546 0.494,0.2427 0.853,0.52 1.079,0.832 0.234,0.312 0.351,0.7107 0.351,1.196 0,0.5893 -0.195,1.1267 -0.585,1.612 -0.382,0.4767 -0.876,0.8537 -1.482,1.131 -0.598,0.2773 -1.201,0.416 -1.807,0.416 z m 7.264,-0.923 c -0.052,0.2513 -0.187,0.468 -0.403,0.65 -0.217,0.1733 -0.451,0.26 -0.702,0.26 -0.252,0 -0.447,-0.0867 -0.585,-0.26 -0.139,-0.182 -0.182,-0.3987 -0.13,-0.65 0.052,-0.2513 0.307,-1.5123 0.767,-3.783 0.468,-2.2707 0.745,-3.53167 0.832,-3.783 0.06,-0.25133 0.199,-0.45933 0.416,-0.624 0.216,-0.17333 0.45,-0.26 0.702,-0.26 0.043,0 0.086,0.0043 0.13,0.013 0.017,0 0.039,-0.0043 0.065,-0.013 1.092,-0.17333 1.932,-0.24267 2.522,-0.208 1.17,0.078 1.976,0.48967 2.418,1.235 0.346,0.572 0.455,1.183 0.325,1.833 -0.13,0.65 -0.447,1.196 -0.949,1.638 -0.425,0.3727 -0.915,0.663 -1.469,0.871 -0.555,0.208 -1.097,0.325 -1.625,0.351 -0.182,0.0087 -0.373,0.0087 -0.572,0 -0.191,-0.0087 -0.425,-0.026 -0.702,-0.052 -0.278,-0.026 -0.434,-0.0433 -0.468,-0.052 -0.26,1.3087 -0.451,2.2533 -0.572,2.834 z m 2.613,-4.55 c 0.32,-0.0087 0.637,-0.0693 0.949,-0.182 0.312,-0.1213 0.554,-0.2643 0.728,-0.429 0.086,-0.078 0.147,-0.1473 0.182,-0.208 0.043,-0.0693 0.065,-0.195 0.065,-0.377 0,-0.182 -0.048,-0.3597 -0.143,-0.533 -0.208,-0.338 -0.633,-0.52433 -1.274,-0.559 -0.434,-0.026 -1.006,0.013 -1.716,0.117 -0.13,0.5807 -0.282,1.2697 -0.455,2.067 h 0.013 l 0.598,0.065 c 0.216,0.0173 0.407,0.0303 0.572,0.039 0.164,0.0087 0.325,0.0087 0.481,0 z m 10.312,5.382 c -1.283,0 -3.029,-0.013 -5.239,-0.039 -0.174,0 -0.321,-0.0477 -0.442,-0.143 -0.122,-0.104 -0.204,-0.2297 -0.247,-0.377 -0.07,-0.156 -0.083,-0.325 -0.039,-0.507 0.069,-0.3033 0.325,-1.5253 0.767,-3.666 0.32,-1.56 0.619,-2.78633 0.897,-3.679 0.034,-0.11267 0.082,-0.21667 0.143,-0.312 0.104,-0.17333 0.238,-0.312 0.403,-0.416 0.173,-0.11267 0.359,-0.17333 0.559,-0.182 0.632,-0.0087 1.486,-0.0087 2.561,0 1.074,0 1.928,-0.0043 2.561,-0.013 0.251,0 0.446,0.08667 0.585,0.26 0.138,0.17333 0.182,0.38567 0.13,0.637 -0.052,0.24267 -0.182,0.455 -0.39,0.637 -0.2,0.17333 -0.425,0.26 -0.676,0.26 -0.486,0 -1.209,0 -2.171,0 -0.962,-0.0087 -1.686,-0.0087 -2.171,0 -0.139,0.5287 -0.291,1.1527 -0.455,1.872 0.416,-0.0087 1.698,-0.013 3.848,-0.013 0.251,0 0.446,0.0867 0.585,0.26 0.147,0.1733 0.195,0.3857 0.143,0.637 -0.052,0.2427 -0.187,0.455 -0.403,0.637 -0.217,0.1733 -0.451,0.26 -0.702,0.26 -2.158,0 -3.437,0.0043 -3.835,0.013 -0.191,0.9707 -0.334,1.6553 -0.429,2.054 1.759,0.0173 3.228,0.026 4.407,0.026 0.251,0 0.442,0.0867 0.572,0.26 0.138,0.1733 0.182,0.3857 0.13,0.637 -0.052,0.2513 -0.187,0.4637 -0.403,0.637 -0.208,0.1733 -0.438,0.26 -0.689,0.26 z m 8.98,0 c -1.283,0 -3.029,-0.013 -5.239,-0.039 -0.173,0 -0.321,-0.0477 -0.442,-0.143 -0.121,-0.104 -0.204,-0.2297 -0.247,-0.377 -0.069,-0.156 -0.082,-0.325 -0.039,-0.507 0.069,-0.3033 0.325,-1.5253 0.767,-3.666 0.321,-1.56 0.62,-2.78633 0.897,-3.679 0.035,-0.11267 0.082,-0.21667 0.143,-0.312 0.104,-0.17333 0.238,-0.312 0.403,-0.416 0.173,-0.11267 0.36,-0.17333 0.559,-0.182 0.633,-0.0087 1.486,-0.0087 2.561,0 1.075,0 1.928,-0.0043 2.561,-0.013 0.251,0 0.446,0.08667 0.585,0.26 0.139,0.17333 0.182,0.38567 0.13,0.637 -0.052,0.24267 -0.182,0.455 -0.39,0.637 -0.199,0.17333 -0.425,0.26 -0.676,0.26 -0.485,0 -1.209,0 -2.171,0 -0.962,-0.0087 -1.686,-0.0087 -2.171,0 -0.139,0.5287 -0.29,1.1527 -0.455,1.872 0.416,-0.0087 1.699,-0.013 3.848,-0.013 0.251,0 0.446,0.0867 0.585,0.26 0.147,0.1733 0.195,0.3857 0.143,0.637 -0.052,0.2427 -0.186,0.455 -0.403,0.637 -0.217,0.1733 -0.451,0.26 -0.702,0.26 -2.158,0 -3.436,0.0043 -3.835,0.013 -0.191,0.9707 -0.334,1.6553 -0.429,2.054 1.759,0.0173 3.228,0.026 4.407,0.026 0.251,0 0.442,0.0867 0.572,0.26 0.139,0.1733 0.182,0.3857 0.13,0.637 -0.052,0.2513 -0.186,0.4637 -0.403,0.637 -0.208,0.1733 -0.438,0.26 -0.689,0.26 z m 3.689,-0.026 c -0.234,-0.0087 -0.42,-0.0997 -0.559,-0.273 -0.138,-0.1733 -0.182,-0.3857 -0.13,-0.637 l 0.78,-3.744 c 0.26,-1.3087 0.533,-2.51767 0.819,-3.627 0.061,-0.234 0.2,-0.43767 0.416,-0.611 0.226,-0.17333 0.464,-0.25567 0.715,-0.247 0.139,-0.03467 0.395,-0.065 0.767,-0.091 0.373,-0.03467 0.78,-0.052 1.222,-0.052 1.162,0 2.089,0.29033 2.782,0.871 0.702,0.572 1.053,1.40833 1.053,2.509 0,0.8407 -0.208,1.6597 -0.624,2.457 -0.416,0.7973 -0.944,1.495 -1.586,2.093 -0.528,0.4853 -1.122,0.8363 -1.781,1.053 -0.658,0.208 -1.326,0.312 -2.002,0.312 -1.014,0 -1.638,-0.0043 -1.872,-0.013 z m 1.3,-1.703 c 0.512,0 0.85,-0.0043 1.014,-0.013 0.659,-0.0347 1.196,-0.1517 1.612,-0.351 0.416,-0.1993 0.789,-0.507 1.118,-0.923 0.338,-0.4333 0.59,-0.8797 0.754,-1.339 0.165,-0.4593 0.247,-0.8927 0.247,-1.3 0,-0.6673 -0.199,-1.157 -0.598,-1.469 -0.39,-0.32067 -1.035,-0.481 -1.937,-0.481 -0.294,0 -0.624,0.013 -0.988,0.039 l -0.416,1.898 -0.468,2.301 c -0.13,0.65 -0.242,1.196 -0.338,1.638 z m -67.969001,17.703 c -0.78,0 -1.482,-0.156 -2.106,-0.468 -0.6153,-0.3207 -1.1007,-0.7713 -1.456,-1.352 -0.3553,-0.5893 -0.533,-1.2653 -0.533,-2.028 0,-0.9967 0.2427,-1.9197 0.728,-2.769 0.494,-0.858 1.157,-1.5383 1.989,-2.041 0.8407,-0.5027 1.7507,-0.754 2.73,-0.754 0.2253,0 0.39,0.0087 0.494,0.026 0.104,0.0173 0.2643,0.0607 0.481,0.13 l 0.325,0.104 c 0.1647,0.052 0.3337,0.1083 0.507,0.169 0.1733,0.0607 0.3207,0.13 0.442,0.208 0.494,0.338 0.8797,0.7973 1.157,1.378 0.2773,0.572 0.416,1.2177 0.416,1.937 0,0.936 -0.2383,1.8243 -0.715,2.665 -0.468,0.8407 -1.1007,1.5167 -1.898,2.028 -0.7887,0.5113 -1.6423,0.767 -2.561,0.767 z m 0.299,-1.755 c 0.5807,0 1.1007,-0.156 1.56,-0.468 0.468,-0.3207 0.832,-0.7367 1.092,-1.248 0.2687,-0.52 0.403,-1.066 0.403,-1.638 0,-0.4073 -0.0953,-0.832 -0.286,-1.274 -0.182,-0.442 -0.4117,-0.754 -0.689,-0.936 -0.104,-0.0693 -0.2947,-0.1343 -0.572,-0.195 -0.0607,-0.0173 -0.1257,-0.0347 -0.195,-0.052 -0.0693,-0.026 -0.143,-0.0477 -0.221,-0.065 -0.2253,-0.0173 -0.416,-0.026 -0.572,-0.026 -0.546,0 -1.0573,0.1647 -1.534,0.494 -0.4767,0.3207 -0.8537,0.7497 -1.131,1.287 -0.2773,0.5373 -0.416,1.105 -0.416,1.703 0,0.7887 0.221,1.391 0.663,1.807 0.4507,0.4073 1.0833,0.611 1.898,0.611 z m 7.7482,0.949 c -0.052,0.2513 -0.1863,0.468 -0.403,0.65 -0.2167,0.1733 -0.4507,0.26 -0.702,0.26 -0.2513,0 -0.4463,-0.0867 -0.585,-0.26 -0.1387,-0.182 -0.182,-0.3987 -0.13,-0.65 0.052,-0.2513 0.3077,-1.5123 0.767,-3.783 0.468,-2.2707 0.7453,-3.5317 0.832,-3.783 0.0607,-0.2513 0.1993,-0.4593 0.416,-0.624 0.2167,-0.1733 0.4507,-0.26 0.702,-0.26 0.0433,0 0.0867,0.0043 0.13,0.013 0.0173,0 0.039,-0.0043 0.065,-0.013 1.092,-0.1733 1.9327,-0.2427 2.522,-0.208 1.17,0.078 1.976,0.4897 2.418,1.235 0.3467,0.572 0.455,1.183 0.325,1.833 -0.13,0.65 -0.4463,1.196 -0.949,1.638 -0.4247,0.3727 -0.9143,0.663 -1.469,0.871 -0.5547,0.208 -1.0963,0.325 -1.625,0.351 -0.182,0.0087 -0.3727,0.0087 -0.572,0 -0.1907,-0.0087 -0.4247,-0.026 -0.702,-0.052 -0.2773,-0.026 -0.4333,-0.0433 -0.468,-0.052 -0.26,1.3087 -0.4507,2.2533 -0.572,2.834 z m 2.613,-4.55 c 0.3207,-0.0087 0.637,-0.0693 0.949,-0.182 0.312,-0.1213 0.5547,-0.2643 0.728,-0.429 0.0867,-0.078 0.1473,-0.1473 0.182,-0.208 0.0433,-0.0693 0.065,-0.195 0.065,-0.377 0,-0.182 -0.0477,-0.3597 -0.143,-0.533 -0.208,-0.338 -0.6327,-0.5243 -1.274,-0.559 -0.4333,-0.026 -1.0053,0.013 -1.716,0.117 -0.13,0.5807 -0.2817,1.2697 -0.455,2.067 h 0.013 l 0.598,0.065 c 0.2167,0.0173 0.4073,0.0303 0.572,0.039 0.1647,0.0087 0.325,0.0087 0.481,0 z m 7.868,4.472 c -0.0607,0.2513 -0.1994,0.4637 -0.416,0.637 -0.208,0.1733 -0.4377,0.26 -0.689,0.26 -0.2514,-0.0087 -0.4464,-0.0997 -0.585,-0.273 -0.1387,-0.182 -0.1777,-0.3987 -0.117,-0.65 0.0606,-0.2687 0.3163,-1.495 0.767,-3.679 0.2253,-1.118 0.4463,-2.093 0.663,-2.925 -0.6934,0.0087 -1.2784,0.013 -1.755,0.013 -0.2514,0 -0.4507,-0.0823 -0.598,-0.247 -0.1387,-0.1647 -0.1864,-0.3727 -0.143,-0.624 0.052,-0.2513 0.182,-0.4593 0.39,-0.624 0.2166,-0.1733 0.4506,-0.26 0.702,-0.26 0.5546,0 1.4733,-0.0043 2.756,-0.013 1.282601,-0.0087 2.201301,-0.013 2.756001,-0.013 0.2513,0 0.4463,0.0823 0.585,0.247 0.1473,0.156 0.195,0.3597 0.143,0.611 -0.0434,0.2427 -0.1734,0.455 -0.39,0.637 -0.208,0.1733 -0.4334,0.26 -0.676,0.26 -0.546,0 -1.196,0.0043 -1.950001,0.013 -0.208,0.7973 -0.429,1.768 -0.663,2.912 -0.4507,2.21 -0.7107,3.4493 -0.78,3.718 z m 4.752901,0.936 c -0.2513,0 -0.4507,-0.0823 -0.598,-0.247 -0.1473,-0.1733 -0.1993,-0.3857 -0.156,-0.637 0.052,-0.2253 0.169,-0.4247 0.351,-0.598 0.182,-0.182 0.3813,-0.2903 0.598,-0.325 0.3293,-1.508 0.7323,-3.419 1.209,-5.733 -0.1993,-0.0433 -0.351,-0.1473 -0.455,-0.312 -0.104,-0.1647 -0.13,-0.3597 -0.078,-0.585 0.052,-0.2513 0.1863,-0.4637 0.403,-0.637 0.2167,-0.1733 0.4507,-0.26 0.702,-0.26 l 1.469,0.013 c 0.2513,0 0.442,0.091 0.5719,0.273 0.139,0.182 0.182,0.3987 0.13,0.65 -0.043,0.2167 -0.156,0.4073 -0.3379,0.572 -0.1733,0.1647 -0.3727,0.2687 -0.598,0.312 -0.4593,2.2793 -0.8537,4.1687 -1.183,5.668 0.208,0.0347 0.364,0.1343 0.468,0.299 0.1127,0.1647 0.1517,0.3553 0.117,0.572 -0.052,0.2513 -0.182,0.468 -0.39,0.65 -0.208,0.182 -0.4377,0.2773 -0.689,0.286 z m 13.8609,-0.91 c -0.06,0.2513 -0.203,0.4637 -0.429,0.637 -0.216,0.1733 -0.45,0.2557 -0.702,0.247 -0.242,-0.0087 -0.433,-0.104 -0.572,-0.286 -0.138,-0.182 -0.173,-0.3987 -0.104,-0.65 0.13,-0.5633 0.473,-2.2273 1.027,-4.992 -0.814,0.806 -1.629,1.6683 -2.444,2.587 -0.19,0.208 -0.416,0.338 -0.676,0.39 -0.251,0.0433 -0.463,-0.0043 -0.637,-0.143 -0.026,-0.0173 -0.043,-0.0347 -0.052,-0.052 -0.086,-0.0607 -0.156,-0.1343 -0.208,-0.221 l -1.456,-2.522 c 0,0.0173 -0.177,0.8493 -0.533,2.496 -0.346,1.638 -0.524,2.4613 -0.533,2.47 -0.052,0.2513 -0.186,0.468 -0.403,0.65 -0.208,0.1733 -0.437,0.26 -0.689,0.26 -0.251,0 -0.45,-0.0867 -0.598,-0.26 -0.138,-0.182 -0.182,-0.3987 -0.13,-0.65 0.078,-0.364 0.208,-0.975 0.39,-1.833 0.191,-0.858 0.334,-1.521 0.429,-1.989 0.104,-0.468 0.221,-1.0487 0.351,-1.742 0.113,-0.6153 0.221,-1.2523 0.325,-1.911 0.035,-0.2513 0.152,-0.4723 0.351,-0.663 0.208,-0.1907 0.442,-0.2947 0.702,-0.312 0.13,-0.0087 0.247,0.0087 0.351,0.052 0.234,0.0347 0.403,0.1517 0.507,0.351 l 2.119,3.627 c 1.214,-1.3 2.414,-2.47 3.601,-3.51 0.252,-0.312 0.551,-0.4637 0.897,-0.455 0.252,0.0087 0.442,0.104 0.572,0.286 0.139,0.182 0.178,0.3987 0.117,0.65 -0.199,0.8233 -0.468,2.0843 -0.806,3.783 -0.329,1.69 -0.585,2.925 -0.767,3.705 z m 2.792,0.91 c -0.251,0 -0.45,-0.0823 -0.598,-0.247 -0.147,-0.1733 -0.199,-0.3857 -0.156,-0.637 0.052,-0.2253 0.169,-0.4247 0.351,-0.598 0.182,-0.182 0.382,-0.2903 0.598,-0.325 0.33,-1.508 0.733,-3.419 1.209,-5.733 -0.199,-0.0433 -0.351,-0.1473 -0.455,-0.312 -0.104,-0.1647 -0.13,-0.3597 -0.078,-0.585 0.052,-0.2513 0.187,-0.4637 0.403,-0.637 0.217,-0.1733 0.451,-0.26 0.702,-0.26 l 1.469,0.013 c 0.252,0 0.442,0.091 0.572,0.273 0.139,0.182 0.182,0.3987 0.13,0.65 -0.043,0.2167 -0.156,0.4073 -0.338,0.572 -0.173,0.1647 -0.372,0.2687 -0.598,0.312 -0.459,2.2793 -0.853,4.1687 -1.183,5.668 0.208,0.0347 0.364,0.1343 0.468,0.299 0.113,0.1647 0.152,0.3553 0.117,0.572 -0.052,0.2513 -0.182,0.468 -0.39,0.65 -0.208,0.182 -0.437,0.2773 -0.689,0.286 z m 7.427,-0.039 c -1.179,0 -2.145,-0.0173 -2.899,-0.052 -0.234,-0.0087 -0.412,-0.104 -0.533,-0.286 -0.122,-0.182 -0.152,-0.3943 -0.091,-0.637 0.06,-0.2427 0.203,-0.4507 0.429,-0.624 0.303,-0.2773 0.819,-0.7973 1.547,-1.56 2.634,-2.4093 4.138,-3.8567 4.511,-4.342 -1.89,0.0347 -3.263,0.0217 -4.121,-0.039 -0.243,-0.0173 -0.425,-0.117 -0.546,-0.299 -0.113,-0.182 -0.135,-0.3987 -0.065,-0.65 0.069,-0.2513 0.208,-0.455 0.416,-0.611 0.216,-0.1647 0.442,-0.2383 0.676,-0.221 0.563,0.0347 1.148,0.0563 1.755,0.065 0.615,0.0087 1.317,0.0043 2.106,-0.013 0.797,-0.0173 1.391,-0.026 1.781,-0.026 0.234,0 0.416,0.0867 0.546,0.26 0.138,0.1733 0.182,0.3813 0.13,0.624 -0.052,0.2253 -0.161,0.4203 -0.325,0.585 -0.018,0.026 -0.035,0.052 -0.052,0.078 -0.399,0.598 -0.815,1.118 -1.248,1.56 -0.425,0.4333 -1.894,1.794 -4.407,4.082 l -0.325,0.325 c 0.286,0 0.632,0.0087 1.04,0.026 1.664,-0.0347 2.665,-0.052 3.003,-0.052 0.234,0 0.416,0.0867 0.546,0.26 0.138,0.1733 0.182,0.3813 0.13,0.624 -0.052,0.234 -0.182,0.4377 -0.39,0.611 -0.208,0.1733 -0.429,0.26 -0.663,0.26 -0.321,0 -1.305,0.0173 -2.951,0.052 z m 4.805,-0.533 c -0.017,-0.0867 -0.026,-0.1517 -0.026,-0.195 0,-0.1647 0.052,-0.3293 0.156,-0.494 l 4.511,-7.371 c 0.295,-0.4767 0.65,-0.715 1.066,-0.715 0.243,0 0.438,0.065 0.585,0.195 0.148,0.1213 0.243,0.2947 0.286,0.52 l 0.364,2.21 0.429,2.795 0.377,2.34 c 0.035,0.2253 0.005,0.4333 -0.091,0.624 -0.086,0.1907 -0.212,0.3423 -0.377,0.455 -0.156,0.1127 -0.316,0.169 -0.481,0.169 -0.433,0 -0.689,-0.1863 -0.767,-0.559 l -0.312,-1.976 -2.886,0.065 -1.131,1.937 c -0.112,0.1733 -0.26,0.312 -0.442,0.416 -0.173,0.0953 -0.351,0.143 -0.533,0.143 -0.173,0 -0.325,-0.0477 -0.455,-0.143 -0.138,-0.0953 -0.229,-0.234 -0.273,-0.416 z m 5.434,-3.731 -0.26,-1.885 -1.235,1.911 z m 6.267,3.367 c -0.061,0.2513 -0.199,0.4637 -0.416,0.637 -0.208,0.1733 -0.438,0.26 -0.689,0.26 -0.251,-0.0087 -0.446,-0.0997 -0.585,-0.273 -0.139,-0.182 -0.178,-0.3987 -0.117,-0.65 0.061,-0.2687 0.316,-1.495 0.767,-3.679 0.225,-1.118 0.446,-2.093 0.663,-2.925 -0.693,0.0087 -1.278,0.013 -1.755,0.013 -0.251,0 -0.451,-0.0823 -0.598,-0.247 -0.139,-0.1647 -0.186,-0.3727 -0.143,-0.624 0.052,-0.2513 0.182,-0.4593 0.39,-0.624 0.217,-0.1733 0.451,-0.26 0.702,-0.26 0.555,0 1.473,-0.0043 2.756,-0.013 1.283,-0.0087 2.201,-0.013 2.756,-0.013 0.251,0 0.446,0.0823 0.585,0.247 0.147,0.156 0.195,0.3597 0.143,0.611 -0.043,0.2427 -0.173,0.455 -0.39,0.637 -0.208,0.1733 -0.433,0.26 -0.676,0.26 -0.546,0 -1.196,0.0043 -1.95,0.013 -0.208,0.7973 -0.429,1.768 -0.663,2.912 -0.451,2.21 -0.711,3.4493 -0.78,3.718 z m 4.753,0.936 c -0.251,0 -0.451,-0.0823 -0.598,-0.247 -0.147,-0.1733 -0.199,-0.3857 -0.156,-0.637 0.052,-0.2253 0.169,-0.4247 0.351,-0.598 0.182,-0.182 0.381,-0.2903 0.598,-0.325 0.329,-1.508 0.732,-3.419 1.209,-5.733 -0.199,-0.0433 -0.351,-0.1473 -0.455,-0.312 -0.104,-0.1647 -0.13,-0.3597 -0.078,-0.585 0.052,-0.2513 0.186,-0.4637 0.403,-0.637 0.217,-0.1733 0.451,-0.26 0.702,-0.26 l 1.469,0.013 c 0.251,0 0.442,0.091 0.572,0.273 0.139,0.182 0.182,0.3987 0.13,0.65 -0.043,0.2167 -0.156,0.4073 -0.338,0.572 -0.173,0.1647 -0.373,0.2687 -0.598,0.312 -0.459,2.2793 -0.854,4.1687 -1.183,5.668 0.208,0.0347 0.364,0.1343 0.468,0.299 0.113,0.1647 0.152,0.3553 0.117,0.572 -0.052,0.2513 -0.182,0.468 -0.39,0.65 -0.208,0.182 -0.438,0.2773 -0.689,0.286 z m 8.908,-0.052 c -0.78,0 -1.482,-0.156 -2.106,-0.468 -0.615,-0.3207 -1.1,-0.7713 -1.456,-1.352 -0.355,-0.5893 -0.533,-1.2653 -0.533,-2.028 0,-0.9967 0.243,-1.9197 0.728,-2.769 0.494,-0.858 1.157,-1.5383 1.989,-2.041 0.841,-0.5027 1.751,-0.754 2.73,-0.754 0.226,0 0.39,0.0087 0.494,0.026 0.104,0.0173 0.265,0.0607 0.481,0.13 l 0.325,0.104 c 0.165,0.052 0.334,0.1083 0.507,0.169 0.174,0.0607 0.321,0.13 0.442,0.208 0.494,0.338 0.88,0.7973 1.157,1.378 0.278,0.572 0.416,1.2177 0.416,1.937 0,0.936 -0.238,1.8243 -0.715,2.665 -0.468,0.8407 -1.1,1.5167 -1.898,2.028 -0.788,0.5113 -1.642,0.767 -2.561,0.767 z m 0.299,-1.755 c 0.581,0 1.101,-0.156 1.56,-0.468 0.468,-0.3207 0.832,-0.7367 1.092,-1.248 0.269,-0.52 0.403,-1.066 0.403,-1.638 0,-0.4073 -0.095,-0.832 -0.286,-1.274 -0.182,-0.442 -0.411,-0.754 -0.689,-0.936 -0.104,-0.0693 -0.294,-0.1343 -0.572,-0.195 -0.06,-0.0173 -0.125,-0.0347 -0.195,-0.052 -0.069,-0.026 -0.143,-0.0477 -0.221,-0.065 -0.225,-0.0173 -0.416,-0.026 -0.572,-0.026 -0.546,0 -1.057,0.1647 -1.534,0.494 -0.476,0.3207 -0.853,0.7497 -1.131,1.287 -0.277,0.5373 -0.416,1.105 -0.416,1.703 0,0.7887 0.221,1.391 0.663,1.807 0.451,0.4073 1.084,0.611 1.898,0.611 z m 12.624,1.716 c -0.347,0.0607 -0.607,-0.0433 -0.78,-0.312 -0.434,-0.6847 -0.949,-1.6987 -1.547,-3.042 -0.668,-1.3607 -1.153,-2.2837 -1.456,-2.769 -0.061,0.3467 -0.2,1.118 -0.416,2.314 -0.217,1.1873 -0.412,2.1753 -0.585,2.964 -0.052,0.2513 -0.187,0.468 -0.403,0.65 -0.217,0.1733 -0.451,0.26 -0.702,0.26 -0.252,0 -0.447,-0.0867 -0.585,-0.26 -0.139,-0.182 -0.182,-0.3987 -0.13,-0.65 0.164,-0.7627 0.403,-1.9933 0.715,-3.692 0.312,-1.7073 0.58,-2.9987 0.806,-3.874 0.06,-0.2513 0.199,-0.4637 0.416,-0.637 0.225,-0.1733 0.459,-0.2557 0.702,-0.247 0.121,0.0087 0.234,0.0347 0.338,0.078 0.156,0.052 0.277,0.1473 0.364,0.286 0.112,0.182 0.29,0.4723 0.533,0.871 0.251,0.39 0.437,0.6847 0.559,0.884 0.372,0.5027 0.892,1.43 1.56,2.782 l 0.442,0.897 c 0.45,-2.0107 0.801,-3.6443 1.053,-4.901 0.052,-0.2513 0.182,-0.4637 0.39,-0.637 0.216,-0.182 0.45,-0.273 0.702,-0.273 0.251,-0.0087 0.446,0.0737 0.585,0.247 0.138,0.1733 0.186,0.3857 0.143,0.637 -0.243,1.1787 -0.789,3.6877 -1.638,7.527 -0.061,0.2427 -0.191,0.4507 -0.39,0.624 -0.2,0.1647 -0.425,0.2557 -0.676,0.273 z"
     fill="#14161b"
     id="path315" />
</svg>
